<?xml version="1.0" encoding="UTF-8"?>
<svg xmlns="http://www.w3.org/2000/svg" xmlns:xlink="http://www.w3.org/1999/xlink" width="108pt" height="108pt" viewBox="0 0 108 108" version="1.1">
<defs>
<filter id="alpha" filterUnits="objectBoundingBox" x="0%" y="0%" width="100%" height="100%">
  <feColorMatrix type="matrix" in="SourceGraphic" values="0 0 0 0 1 0 0 0 0 1 0 0 0 0 1 0 0 0 1 0"/>
</filter>
<mask id="mask0">
  <g filter="url(#alpha)">
<rect x="0" y="0" width="108" height="108" style="fill:rgb(0%,0%,0%);fill-opacity:0.101961;stroke:none;"/>
  </g>
</mask>
<clipPath id="clip1">
  <rect x="0" y="0" width="108" height="108"/>
</clipPath>
<g id="surface5" clip-path="url(#clip1)">
<path style=" stroke:none;fill-rule:nonzero;fill:rgb(0%,0%,0%);fill-opacity:1;" d="M 88.941406 69.523438 L 95.503906 80.886719 C 100.542969 73.136719 103.5 63.914062 103.5 54 C 103.5 47.644531 102.253906 41.585938 100.0625 36 L 98.886719 36 C 98.917969 36.753906 99 37.492188 99 38.25 C 99 49.910156 95.25 60.6875 88.941406 69.523438 Z M 88.941406 69.523438 "/>
</g>
<mask id="mask1">
  <g filter="url(#alpha)">
<rect x="0" y="0" width="108" height="108" style="fill:rgb(0%,0%,0%);fill-opacity:0.101961;stroke:none;"/>
  </g>
</mask>
<clipPath id="clip2">
  <rect x="0" y="0" width="108" height="108"/>
</clipPath>
<g id="surface8" clip-path="url(#clip2)">
<path style=" stroke:none;fill-rule:nonzero;fill:rgb(0%,0%,0%);fill-opacity:1;" d="M 13.050781 81.6875 C 20.632812 92.859375 32.648438 100.769531 46.566406 102.878906 L 53.09375 91.574219 C 50.445312 91.976562 47.757812 92.25 45 92.25 C 33.039062 92.25 22.011719 88.292969 13.050781 81.6875 Z M 13.050781 81.6875 "/>
</g>
<mask id="mask2">
  <g filter="url(#alpha)">
<rect x="0" y="0" width="108" height="108" style="fill:rgb(0%,0%,0%);fill-opacity:0.101961;stroke:none;"/>
  </g>
</mask>
<clipPath id="clip3">
  <rect x="0" y="0" width="108" height="108"/>
</clipPath>
<g id="surface11" clip-path="url(#clip3)">
<path style=" stroke:none;fill-rule:nonzero;fill:rgb(0%,0%,0%);fill-opacity:1;" d="M 58.996094 90.34375 L 51.476562 103.371094 C 52.316406 103.414062 53.148438 103.5 54 103.5 C 69.613281 103.5 83.539062 96.214844 92.617188 84.886719 L 85.957031 73.347656 C 78.980469 81.476562 69.636719 87.480469 58.996094 90.34375 Z M 58.996094 90.34375 "/>
</g>
<linearGradient id="linear0" gradientUnits="userSpaceOnUse" x1="-45.5785" y1="639.5551" x2="-23.8277" y2="629.4137" gradientTransform="matrix(4.499993,0,0,-4.499993,210.164077,2909.179758)">
<stop offset="0" style="stop-color:rgb(100%,100%,100%);stop-opacity:0.2;"/>
<stop offset="1" style="stop-color:rgb(100%,100%,100%);stop-opacity:0;"/>
</linearGradient>
</defs>
<g id="surface1">
<path style=" stroke:none;fill-rule:nonzero;fill:rgb(18.823529%,23.529412%,25.882353%);fill-opacity:1;" d="M 54 0 C 24.222656 0 0 24.226562 0 54 C 0 83.773438 24.222656 108 54 108 C 83.777344 108 108 83.773438 108 54 C 108 24.226562 83.777344 0 54 0 Z M 54 0 "/>
<path style=" stroke:none;fill-rule:nonzero;fill:rgb(94.901961%,94.901961%,94.901961%);fill-opacity:1;" d="M 64.394531 72 L 43.605469 72 L 33.210938 54 L 43.605469 36 L 64.394531 36 L 74.789062 54 Z M 64.394531 72 "/>
<path style=" stroke:none;fill-rule:nonzero;fill:rgb(53.333333%,5.490196%,30.980392%);fill-opacity:1;" d="M 69.589844 36 L 100.0625 36 C 102.253906 41.585938 103.5 47.644531 103.5 54 C 103.5 63.914062 100.542969 73.136719 95.503906 80.886719 Z M 69.589844 36 "/>
<path style=" stroke:none;fill-rule:nonzero;fill:rgb(89.803922%,22.352941%,20.784314%);fill-opacity:1;" d="M 98.035156 31.5 L 46.203125 31.5 L 61.433594 5.121094 C 77.421875 7.542969 90.910156 17.609375 98.035156 31.5 Z M 98.035156 31.5 "/>
<path style=" stroke:none;fill-rule:nonzero;fill:rgb(100%,56.078431%,0%);fill-opacity:1;" d="M 54 4.5 C 54.851562 4.5 55.683594 4.585938 56.523438 4.628906 L 30.617188 49.503906 L 15.382812 23.113281 C 24.460938 11.785156 38.386719 4.5 54 4.5 Z M 54 4.5 "/>
<path style=" stroke:none;fill-rule:nonzero;fill:rgb(100%,79.215686%,15.686275%);fill-opacity:1;" d="M 12.496094 27.113281 L 38.410156 72 L 7.9375 72 C 5.746094 66.414062 4.5 60.355469 4.5 54 C 4.5 44.085938 7.457031 34.863281 12.496094 27.113281 Z M 12.496094 27.113281 "/>
<path style=" stroke:none;fill-rule:nonzero;fill:rgb(48.627451%,70.196078%,25.882353%);fill-opacity:1;" d="M 9.964844 76.5 L 61.796875 76.5 L 46.566406 102.878906 C 30.578125 100.457031 17.089844 90.390625 9.964844 76.5 Z M 9.964844 76.5 "/>
<path style=" stroke:none;fill-rule:nonzero;fill:rgb(0.784314%,53.333333%,81.960784%);fill-opacity:1;" d="M 54 103.5 C 53.148438 103.5 52.316406 103.414062 51.476562 103.371094 L 77.382812 58.496094 L 92.617188 84.886719 C 83.539062 96.214844 69.613281 103.5 54 103.5 Z M 54 103.5 "/>
<use xlink:href="#surface5" mask="url(#mask0)"/>
<use xlink:href="#surface8" mask="url(#mask1)"/>
<use xlink:href="#surface11" mask="url(#mask2)"/>
<path style=" stroke:none;fill-rule:nonzero;fill:url(#linear0);" d="M 54 0 C 24.222656 0 0 24.226562 0 54 C 0 83.773438 24.222656 108 54 108 C 83.777344 108 108 83.773438 108 54 C 108 24.226562 83.777344 0 54 0 Z M 54 0 "/>
</g>
</svg>
